<svg width="284" height="252" viewBox="0 0 284 252" fill="none" xmlns="http://www.w3.org/2000/svg">
<path d="M28.2029 17.159V55.619C28.2029 59.851 25.0749 62.519 21.2109 62.519C17.3469 62.519 14.2189 59.851 14.2189 55.619V53.319H0.878906V55.619C0.878906 67.579 9.89491 74.939 21.2109 74.939C32.5269 74.939 41.5429 67.579 41.5429 55.619V17.159H28.2029Z" fill="#FAD8D3"/>
<path d="M83.561 24.159V51.319C83.561 56.747 79.421 60.519 74.269 60.519C69.117 60.519 64.977 56.747 64.977 51.319V0.958984H51.637V51.319C51.637 63.739 61.757 72.939 74.269 72.939C86.781 72.939 96.901 63.739 96.901 51.319V24.159H83.561Z" fill="#FAD8D3"/>
<path d="M130.141 41.579C122.505 39.095 118.917 36.427 118.917 32.839C118.917 28.331 122.413 26.399 126.829 26.399C131.245 26.399 134.741 29.527 134.741 35.139H148.081C148.081 21.615 138.513 13.979 126.829 13.979C115.145 13.979 105.301 19.775 105.301 33.299C105.301 42.407 111.189 48.663 122.965 52.803C130.785 55.563 134.373 58.139 134.373 62.371C134.373 66.879 130.877 68.719 126.461 68.719C122.045 68.719 118.549 65.591 118.549 59.979H105.209C105.209 73.503 114.777 81.139 126.461 81.139C138.145 81.139 147.713 75.343 147.713 61.819C147.713 52.711 142.745 45.719 130.141 41.579Z" fill="#FAD8D3"/>
<path d="M186.845 8.35898H152.805V20.779H163.201V86.159H176.541V20.779H186.845V8.35898Z" fill="#FAD8D3"/>
<path d="M53.7309 110.579C46.0949 108.095 42.5069 105.427 42.5069 101.839C42.5069 97.331 46.0029 95.399 50.4189 95.399C54.8349 95.399 58.3309 98.527 58.3309 104.139H71.6709C71.6709 90.615 62.1029 82.979 50.4189 82.979C38.7349 82.979 28.8909 88.775 28.8909 102.299C28.8909 111.407 34.7789 117.663 46.5549 121.803C54.3749 124.563 57.9629 127.139 57.9629 131.371C57.9629 135.879 54.4669 137.719 50.0509 137.719C45.6349 137.719 42.1389 134.591 42.1389 128.979H28.7989C28.7989 142.503 38.3669 150.139 50.0509 150.139C61.7349 150.139 71.3029 144.343 71.3029 130.819C71.3029 121.711 66.3349 114.719 53.7309 110.579Z" fill="#FAD8D3"/>
<path d="M100.888 99.179C88.3761 99.179 78.2561 108.379 78.2561 120.799V126.319C78.2561 138.739 88.3761 147.939 100.888 147.939C113.4 147.939 123.52 138.739 123.52 126.319V120.799C123.52 108.379 113.4 99.179 100.888 99.179ZM100.888 135.519C95.7361 135.519 91.5961 131.747 91.5961 126.319V120.799C91.5961 115.371 95.7361 111.599 100.888 111.599C106.04 111.599 110.18 115.371 110.18 120.799V126.319C110.18 131.747 106.04 135.519 100.888 135.519Z" fill="#FAD8D3"/>
<path d="M208.601 90.359H191.397L171.157 139.947L150.917 90.359H133.621V154.759H146.961V112.899L164.441 154.759H177.781L195.261 112.899V140.959H208.601V90.359Z" fill="#FAD8D3"/>
<path d="M246.282 105.779V93.359H219.602V125.559V157.759H246.282V145.339H232.942V131.263H244.442V118.843H232.942V105.779H246.282Z" fill="#FAD8D3"/>
<path d="M100.915 176.025V163.604H50.8666V222.204H64.2066V204.176H97.2346V191.757H64.2066V176.025H100.915Z" fill="#FAD8D3"/>
<path d="M130.258 167.424C117.746 167.424 107.626 176.624 107.626 189.044V229.565C107.626 241.985 117.746 251.185 130.258 251.185C142.77 251.185 152.89 241.985 152.89 229.565V189.044C152.89 176.624 142.77 167.424 130.258 167.424ZM130.258 238.765C125.106 238.765 120.966 234.993 120.966 229.565V189.044C120.966 183.617 125.106 179.844 130.258 179.844C135.41 179.844 139.55 183.617 139.55 189.044V229.565C139.55 234.993 135.41 238.765 130.258 238.765Z" fill="#FAD8D3"/>
<path d="M176.332 220.585V174.404H162.992V233.005H189.672V220.585H176.332Z" fill="#FAD8D3"/>
<path d="M226.514 237.005H241.51L220.086 198.665L232.114 177.404H216.474L208.586 193.421V156.204H195.246V221.204H208.586V215.04L211.714 210.624L226.514 237.005Z" fill="#FAD8D3"/>
<path d="M265.179 194.824C257.543 192.34 253.955 189.673 253.955 186.085C253.955 181.577 257.451 179.645 261.867 179.645C266.283 179.645 269.779 182.773 269.779 188.385H283.119C283.119 174.861 273.551 167.225 261.867 167.225C250.183 167.225 240.339 173.02 240.339 186.544C240.339 195.652 246.227 201.909 258.003 206.049C265.823 208.809 269.411 211.384 269.411 215.616C269.411 220.124 265.915 221.965 261.499 221.965C257.083 221.965 253.587 218.837 253.587 213.225H240.247C240.247 226.749 249.815 234.385 261.499 234.385C273.183 234.385 282.751 228.588 282.751 215.064C282.751 205.956 277.783 198.964 265.179 194.824Z" fill="#FAD8D3"/>
</svg>
