<svg width="284" height="242" viewBox="0 0 284 242" fill="none" xmlns="http://www.w3.org/2000/svg">
<path d="M28.2049 0.613281V49.368C28.2049 53.6 25.0769 56.268 21.2129 56.268C17.3489 56.268 14.2209 53.6 14.2209 49.368V40.7733H0.880859V49.368C0.880859 61.328 9.89686 68.688 21.2129 68.688C32.5289 68.688 41.5449 61.328 41.5449 49.368V0.613281H28.2049Z" fill="#FAD8D3"/>
<path d="M83.563 22.6225V47.0773C83.563 52.5053 79.423 56.2773 74.271 56.2773C69.119 56.2773 64.979 52.5053 64.979 47.0773V11.4225H51.639V47.0773C51.639 59.4973 61.759 68.6973 74.271 68.6973C86.783 68.6973 96.903 59.4973 96.903 47.0773V22.6225H83.563Z" fill="#FAD8D3"/>
<path d="M130.143 29.1351C122.507 26.6511 118.919 23.9831 118.919 20.3951C118.919 15.8871 122.415 13.9551 126.831 13.9551C131.247 13.9551 134.743 17.0831 134.743 22.6951H148.083C148.083 9.17113 138.515 1.53514 126.831 1.53514C115.147 1.53514 105.303 7.33114 105.303 20.8551C105.303 29.9631 111.191 36.2191 122.967 40.3591C130.787 43.1191 134.375 45.6951 134.375 49.9271C134.375 54.4351 130.879 56.2751 126.463 56.2751C122.047 56.2751 118.551 53.1471 118.551 47.5351H105.211C105.211 61.0591 114.779 68.6951 126.463 68.6951C138.147 68.6951 147.715 62.8991 147.715 49.3751C147.715 40.2671 142.747 33.2751 130.143 29.1351Z" fill="#FAD8D3"/>
<path d="M186.847 6.77253H152.807V19.1925H163.203V81.7725H176.543V19.1925H186.847V6.77253Z" fill="#FAD8D3"/>
<path d="M53.7329 104.993C46.0969 102.509 42.5089 99.8405 42.5089 96.2525C42.5089 91.7445 46.0049 89.8125 50.4209 89.8125C54.8369 89.8125 58.3329 92.9405 58.3329 98.5525H71.6729C71.6729 85.0285 62.1049 77.3925 50.4209 77.3925C38.7369 77.3925 28.8929 83.1885 28.8929 96.7125C28.8929 105.821 34.7809 112.077 46.5569 116.217C54.3769 118.977 57.9649 121.552 57.9649 125.785C57.9649 130.293 54.4689 132.133 50.0529 132.133C45.6369 132.133 42.1409 129.004 42.1409 123.392H28.8009C28.8009 136.916 38.3689 144.553 50.0529 144.553C61.7369 144.553 71.3049 138.756 71.3049 125.232C71.3049 116.124 66.3369 109.133 53.7329 104.993Z" fill="#FAD8D3"/>
<path d="M100.89 91.5925C88.378 91.5925 78.258 100.793 78.258 113.213V118.733C78.258 131.153 88.378 140.352 100.89 140.352C113.402 140.352 123.522 131.153 123.522 118.733V113.213C123.522 100.793 113.402 91.5925 100.89 91.5925ZM100.89 127.932C95.738 127.932 91.5981 124.161 91.5981 118.733V113.213C91.5981 107.785 95.738 104.013 100.89 104.013C106.042 104.013 110.182 107.785 110.182 113.213V118.733C110.182 124.161 106.042 127.932 100.89 127.932Z" fill="#FAD8D3"/>
<path d="M208.603 81.7725H191.399L171.159 131.361L150.919 81.7725H133.623V146.173H146.963V104.313L164.443 146.173H177.783L195.263 104.313V129.372H208.603V81.7725Z" fill="#FAD8D3"/>
<path d="M246.284 100.193V87.7725H219.604V119.973V152.173H246.284V139.753H232.944V125.677H244.444V113.257H232.944V100.193H246.284Z" fill="#FAD8D3"/>
<path d="M100.917 173.107V160.687H50.8686V219.287H64.2086V201.258H97.2366V188.839H64.2086V173.107H100.917Z" fill="#FAD8D3"/>
<path d="M130.26 164.502C117.748 164.502 107.628 173.702 107.628 186.122V219.642C107.628 232.062 117.748 241.262 130.26 241.262C142.772 241.262 152.892 232.062 152.892 219.642V186.122C152.892 173.702 142.772 164.502 130.26 164.502ZM130.26 228.842C125.108 228.842 120.968 225.07 120.968 219.642V186.122C120.968 180.694 125.108 176.922 130.26 176.922C135.412 176.922 139.552 180.694 139.552 186.122V219.642C139.552 225.07 135.412 228.842 130.26 228.842Z" fill="#FAD8D3"/>
<path d="M175.476 206.914V160.734H162.136V219.334H188.816V206.914H175.476Z" fill="#FAD8D3"/>
<path d="M226.516 227.418H241.511L220.087 189.078L232.115 167.818H216.475L208.587 183.834V142.618H195.247V211.618H208.587V205.454L211.715 201.038L226.516 227.418Z" fill="#FAD8D3"/>
<path d="M265.221 188.275C257.585 185.791 253.997 183.123 253.997 179.535C253.997 175.027 257.493 173.095 261.909 173.095C266.325 173.095 269.821 176.223 269.821 181.835H283.161C283.161 168.311 273.593 160.675 261.909 160.675C250.225 160.675 240.381 166.471 240.381 179.995C240.381 189.103 246.269 195.359 258.045 199.499C265.865 202.259 269.453 204.835 269.453 209.067C269.453 213.575 265.957 215.415 261.541 215.415C257.125 215.415 253.629 212.287 253.629 206.675H240.289C240.289 220.199 249.857 227.835 261.541 227.835C273.225 227.835 282.793 222.039 282.793 208.515C282.793 199.407 277.825 192.415 265.221 188.275Z" fill="#FAD8D3"/>
</svg>
